<?xml version="1.0" encoding="UTF-8"?>
<svg xmlns="http://www.w3.org/2000/svg" viewBox="0 0 500 700">
  <defs>
    <style>
      .cls-1 {
        fill: #fff;
      }

      .cls-2 {
        fill: #ffde17;
      }
    </style>
  </defs>
  <g id="Layer_1" data-name="Layer 1">
    <path class="cls-2" d="M500,250c0,250-250,450-250,450,0,0-250-200-250-450C0,111.93,111.93,0,250,0s250,111.93,250,250Z"/>
  </g>
  <g id="Layer_2" data-name="Layer 2">
    <g>
      <path class="cls-1" d="M392.84,295.75c11.52-35.91,8.77-73.19-5.26-105.49-25.82,19.75-47.34,47.85-60.5,81.98l65.77,23.51Z"/>
      <path class="cls-1" d="M256.39,246.97l61.27,21.9c14.12-36.74,37.48-66.87,65.55-87.82-16.11-31.15-43.11-56.74-78.04-70.54l-48.77,136.45Z"/>
      <path class="cls-1" d="M176.29,218.34c11.46-34.74,12.62-70.12,5.17-101.76-31.33,16.09-57.09,43.17-70.94,78.25l65.77,23.51Z"/>
      <path class="cls-1" d="M246.97,243.61l48.77-136.45c-35.76-11.47-72.87-8.79-105.07,5.09,8.43,33.99,7.4,72.1-4.97,109.47l61.27,21.9Z"/>
      <path class="cls-1" d="M314.29,278.29l-61.27-21.9-48.77,136.45c35.76,11.47,72.87,8.79,105.07-5.09-8.43-33.99-7.4-72.1,4.97-109.47Z"/>
      <path class="cls-1" d="M323.71,281.66c-11.46,34.74-12.62,70.12-5.17,101.76,31.33-16.09,57.09-43.17,70.94-78.25l-65.77-23.51Z"/>
      <path class="cls-1" d="M107.16,204.25c-11.52,35.91-8.77,73.19,5.26,105.49,25.82-19.75,47.34-47.85,60.5-81.98l-65.77-23.51Z"/>
      <path class="cls-1" d="M243.61,253.03l-61.27-21.9c-14.12,36.74-37.48,66.87-65.55,87.82,16.11,31.15,43.11,56.74,78.04,70.54l48.77-136.45Z"/>
    </g>
  </g>
</svg>