<?xml version="1.0" encoding="UTF-8"?>
<svg xmlns="http://www.w3.org/2000/svg" viewBox="0 0 500 700">
  <defs>
    <style>
      .cls-1 {
        fill: #fff;
      }

      .cls-2 {
        fill: #ee2a7b;
      }
    </style>
  </defs>
  <g id="Layer_1" data-name="Layer 1">
    <path class="cls-2" d="M500,250c0,250-250,450-250,450,0,0-250-200-250-450C0,111.93,111.93,0,250,0s250,111.93,250,250Z"/>
  </g>
  <g id="Layer_2" data-name="Layer 2">
    <g>
      <path class="cls-1" d="M393.88,228.54c-8.79-.25-26.94-.8-61.47-1.94-7.72-.25-15.33-1.98-22.41-5.07-24.83-10.84-40.4-17.67-49.85-21.84-.5-.22-.98-.43-1.45-.64-.18-.08-.37-.16-.55-.24-.48-.21-.94-.41-1.38-.61-.08-.03-.15-.07-.23-.1-.46-.2-.9-.4-1.32-.58-.17-.08-.33-.15-.5-.22-.36-.16-.73-.32-1.06-.47-.22-.1-.44-.18-.66-.25-.08-.02-.15-.04-.23-.06-.15-.04-.29-.08-.44-.11-.09-.02-.18-.03-.27-.04-.13-.02-.26-.05-.4-.06-.1,0-.19,0-.28-.01-.11,0-.23-.02-.34-.02-.01,0-.02,0-.03,0-.3,0-.59,.03-.88,.07-.07,.01-.14,.02-.21,.04-.26,.05-.52,.11-.77,.19-.03,.01-.07,.02-.1,.03-.27,.09-.54,.2-.8,.33-.06,.03-.13,.06-.19,.1-.24,.13-.47,.27-.68,.42-.02,.01-.04,.03-.06,.04-.23,.17-.45,.36-.65,.56-.05,.05-.1,.1-.15,.15-.19,.2-.37,.42-.53,.65,0,.01-.02,.02-.03,.03-.17,.24-.31,.5-.44,.77-.03,.07-.06,.13-.09,.2-.12,.28-.23,.56-.31,.87,0,.03-.02,.06-.02,.09-.11,.41-.21,.83-.32,1.27-.05,.18-.09,.38-.14,.57-.07,.3-.15,.6-.23,.91-.06,.24-.12,.49-.18,.74-.07,.28-.13,.55-.2,.84-.07,.29-.14,.58-.21,.88-.06,.26-.12,.52-.19,.79-.08,.33-.15,.66-.23,1-.06,.26-.12,.51-.18,.78-.08,.36-.17,.73-.25,1.11-.06,.25-.11,.49-.17,.75-.09,.41-.18,.82-.27,1.24-.05,.23-.1,.47-.15,.71-.1,.44-.19,.9-.29,1.35-.05,.22-.09,.44-.14,.67-.1,.49-.2,.98-.31,1.48-.04,.2-.08,.4-.12,.6-.11,.55-.22,1.1-.33,1.66-.03,.14-.05,.28-.08,.42-.12,.63-.25,1.26-.37,1.91,0,.05-.02,.11-.03,.16-1.3,6.78-2.58,14.58-3.61,23.05,0,.02,0,.05,0,.07-.11,.92-.22,1.85-.33,2.79v.1c-.12,.94-.22,1.88-.32,2.83,0,.03,0,.06,0,.09-4.69,45.53-1.14,107.28,43.94,138.35,2.1,1.44,4.68,2.02,7.2,1.61,79.68-12.8,106.59-124.58,112.3-153.84,.71-3.64-2.16-7.07-6.01-7.18Zm-127.16,7.32c5.25,3.84,15.04,10.75,28.28,18.95,3.03,1.88,1.69,6.58-1.88,6.54-13.75-.14-34.44-3.53-31.99-23.08,.33-2.67,3.42-4,5.59-2.41Zm28.83,101.71c-17.89-4.04-25.43-13.61-28.6-21.33-1.34-3.28,2.53-6.28,5.37-4.16,11.83,8.85,26.2,12.36,26.2,12.36,0,0,14.48,3.01,28.97,.11,3.47-.7,5.68,3.68,3.06,6.06-6.18,5.61-17.1,11-34.99,6.95Zm36.1-74.48c15.48-1.71,27.29-3.73,33.68-4.94,2.64-.5,4.86,2.03,4.01,4.58-6.19,18.7-26.34,12.86-38.81,7.07-3.24-1.5-2.43-6.32,1.12-6.71Z"/>
      <path class="cls-1" d="M190.5,232.8c19.04-2.31,29.45,4.86,34.84,11.3,2,2.39,5.86,1.29,6.25-1.81,2.38-19.23,5.99-34.9,8.07-42.98,1.32-5.13,6.01-8.71,11.4-8.71,1.69,0,3.34,.35,4.9,1.04,.01,0,.03,.01,.04,.02,2.28,1.01,4.87-.61,4.97-3.1,1.08-27.1-1.76-50.75-3.46-62.01-.56-3.67-4.41-5.93-8.08-4.74-8.37,2.72-25.64,8.31-58.54,18.86-7.36,2.36-15.1,3.3-22.81,2.77-34.47-2.37-52.58-3.66-61.35-4.31-3.84-.28-7.05,2.83-6.71,6.53,2.72,29.68,18.15,143.59,96.1,164.42,2.48,.66,5.14,.35,7.39-.89,9.86-5.42,18.1-12.32,24.98-20.24,.58-.67,.88-1.54,.85-2.42-.33-10.72,.06-21.27,.89-31.18,.12-1.45-.65-2.83-1.96-3.48-15.8-7.84-36.15-5.73-36.15-5.73,0,0-14.65,2.04-27.32,9.64-3.04,1.82-6.59-1.56-4.92-4.68,3.94-7.36,12.41-16.11,30.61-18.32Zm44.22-55.15c-6.23-1.85-17.78-5.06-33-8.33-3.49-.75-3.8-5.63-.43-6.79,12.99-4.5,33.62-8.26,37.89,10.97,.58,2.63-1.88,4.92-4.46,4.15Zm-105.68,9.21c-.46-19.7,20.48-20.97,34.16-19.72,3.55,.33,4.41,5.14,1.21,6.7-14,6.82-24.44,12.7-30.05,15.98-2.32,1.36-5.26-.28-5.32-2.97Z"/>
    </g>
  </g>
</svg>