<?xml version="1.0" encoding="UTF-8"?>
<svg xmlns="http://www.w3.org/2000/svg" viewBox="0 0 500 700">
  <defs>
    <style>
      .cls-1 {
        fill: #fff;
      }

      .cls-2 {
        fill: #262262;
      }
    </style>
  </defs>
  <g id="Layer_1" data-name="Layer 1">
    <path class="cls-2" d="M500,250c0,250-250,450-250,450,0,0-250-200-250-450C0,111.93,111.93,0,250,0s250,111.93,250,250Z"/>
  </g>
  <g id="Layer_2" data-name="Layer 2">
    <path class="cls-1" d="M364.86,187.11s-.03-.08,0-.12c19.6-20.02,19.48-52.14-.38-72-19.86-19.86-51.98-19.98-72-.38-.03,.03-.09,.03-.12,0l-1.96-1.96c-1.11-1.11-2.92-1.11-4.02,0-1.11,1.11-1.11,2.92,0,4.02l2.14,2.14s.03,.08,0,.11c-9.88,12.14-13.35,27.74-10.45,42.33,0,.03,0,.05-.02,.07l-135.23,142.31c-8.72,9.18-8.54,23.63,.42,32.59h0c.28,.28,.58,.52,.87,.79-2.52,2.84-5.27,6.07-7.95,9.51-13.22,16.95-17.98,29.91-14.54,39.65,1.94,5.48,7.31,12.28,21.91,13.51,2.57,.22,5.03,.32,7.39,.32,20.29,0,33.43-7.57,47.27-15.53,13.69-7.88,27.84-16.03,52.08-18.83,49.74-5.75,87.91,20.01,88.28,20.26l9.19-13.28c-1.74-1.21-43.35-29.49-99.32-23.03-27.55,3.18-43.88,12.58-58.29,20.87-14.33,8.25-25.65,14.77-45.25,13.12-5.02-.42-7.66-1.71-8.04-2.79-.8-2.26,.82-9.91,11.95-24.21,4.12-5.29,8.46-10.11,11.73-13.56,5.52-.18,11-2.29,15.31-6.38l142.31-135.23s.05-.03,.07-.02c14.59,2.91,30.19-.57,42.33-10.45,.03-.03,.08-.02,.11,0l2.14,2.14c1.11,1.11,2.92,1.11,4.02,0h0c1.11-1.11,1.11-2.92,0-4.02l-1.96-1.96Z"/>
  </g>
</svg>