<?xml version="1.0" encoding="UTF-8"?>
<svg xmlns="http://www.w3.org/2000/svg" viewBox="0 0 500 700">
  <defs>
    <style>
      .cls-1 {
        fill: #fff;
      }

      .cls-2 {
        fill: #27ffe1;
      }
    </style>
  </defs>
  <g id="Layer_1" data-name="Layer 1">
    <path class="cls-2" d="M500,250c0,250-250,450-250,450,0,0-250-200-250-450C0,111.93,111.93,0,250,0s250,111.93,250,250Z"/>
  </g>
  <g id="Layer_2" data-name="Layer 2">
    <g>
      <rect class="cls-1" x="117.83" y="240.16" width="132.01" height="21.27" rx="10.64" ry="10.64"/>
      <path class="cls-1" d="M332.54,100h-71.76c-8.23,0-14.91,6.68-14.91,14.91h0c0,6.07,3.63,11.28,8.84,13.61l-2.53,131.69c-.08,4.32-3.61,7.78-7.93,7.78H123.79c0,44.73,59.64,80.52,129.22,79.52v41.65c0,5.99,4.85,10.84,10.84,10.84h62.82c5.99,0,10.84-4.85,10.84-10.84V128.95c5.79-2.05,9.94-7.55,9.94-14.04h0c0-8.23-6.68-14.91-14.91-14.91Z"/>
    </g>
  </g>
</svg>