<?xml version="1.0" encoding="UTF-8"?>
<svg xmlns="http://www.w3.org/2000/svg" viewBox="0 0 500 700">
  <defs>
    <style>
      .cls-1 {
        fill: #fff;
      }

      .cls-2 {
        fill: #27aae1;
      }
    </style>
  </defs>
  <g id="Layer_1" data-name="Layer 1">
    <path class="cls-2" d="M500,250c0,250-250,450-250,450,0,0-250-200-250-450C0,111.93,111.93,0,250,0s250,111.93,250,250Z"/>
  </g>
  <g id="Layer_2" data-name="Layer 2">
    <g>
      <path class="cls-1" d="M169.67,216.78l37.82,37.82-96.34,90.59c-13.78,12.95-14.96,33.92-2.62,46.26,12.34,12.34,33.31,11.16,46.26-2.62l90.59-96.34,37.82,37.82,24.02-24.02-113.54-113.54-24.02,24.02Z"/>
      <path class="cls-1" d="M394.57,179.66c-3.36-3.36-7.69-5.14-12.09-5.38-.24-4.4-2.02-8.73-5.38-12.09s-7.69-5.14-12.09-5.38c-.24-4.4-2.02-8.73-5.38-12.09-3.92-3.92-9.15-5.7-14.28-5.37,.33-5.13-1.45-10.36-5.37-14.28s-9.15-5.7-14.28-5.37c.33-5.13-1.45-10.36-5.37-14.28-7.24-7.24-18.97-7.24-26.2,0l-89.52,89.52,100.44,100.44,89.52-89.52c7.24-7.24,7.24-18.97,0-26.2Z"/>
    </g>
  </g>
</svg>