<?xml version="1.0" encoding="UTF-8"?>
<svg xmlns="http://www.w3.org/2000/svg" viewBox="0 0 500 700">
  <defs>
    <style>
      .cls-1 {
        fill: #fff;
      }

      .cls-2 {
        fill: #39b54a;
      }
    </style>
  </defs>
  <g id="Layer_1" data-name="Layer 1">
    <path class="cls-2" d="M500,250c0,250-250,450-250,450,0,0-250-200-250-450C0,111.93,111.93,0,250,0s250,111.93,250,250Z"/>
  </g>
  <g id="Layer_2" data-name="Layer 2">
    <path class="cls-1" d="M395.85,156.75l-56.35,56.35-52.61-52.61,56.35-56.35c-28.69-9.44-61.53-2.77-84.34,20.05-24.01,24.01-30.15,59.11-18.44,88.81l-129.95,119.95c-13.64,12.59-14.07,34.01-.94,47.14l10.33,10.33c13.13,13.13,34.55,12.7,47.14-.94l119.95-129.95c29.7,11.71,64.8,5.57,88.81-18.44,22.82-22.82,29.48-55.65,20.05-84.34Z"/>
  </g>
</svg>