<?xml version="1.0" encoding="UTF-8"?>
<svg xmlns="http://www.w3.org/2000/svg" viewBox="0 0 2433.78 876.44">
  <defs>
    <style>
      .cls-1 {
        stroke: #5fe1ff;
        stroke-linecap: round;
        stroke-width: 18px;
      }

      .cls-1, .cls-2, .cls-3 {
        fill: none;
        stroke-linejoin: round;
      }

      .cls-4 {
        fill: #00aa09;
      }

      .cls-2 {
        stroke: #a4a6a4;
        stroke-width: 5px;
      }

      .cls-3 {
        stroke: #5f6866;
        stroke-width: 11px;
      }

      .cls-5 {
        fill: #100055;
      }
    </style>
  </defs>
  <g id="Layer_3" data-name="Layer 3">
    <rect class="cls-4" width="2433.78" height="876.44"/>
  </g>
  <g id="Layer_2" data-name="Layer 2">
    <path class="cls-3" d="m219.96,730.81s-10.56-30.89,11.44-76c0,0,12-14,4.89-54.22s-8.31-47.78-8.31-47.78c0,0-9.92-22-8.14-34.44s30.89-36,30.89-36c0,0,146.67-124.44,172.44-138.22s49.78-30.89,82.22-40.67,146.67-32.44,146.67-32.44c0,0,77.33-12.22,133.78-6.44s116.67,12.22,116.67,12.22c0,0,38,.44,59.11-1.11s40.89-3.11,54.89-2.44,89.56,4.44,127.56,10.89,142.22,24.44,142.22,24.44c0,0,21.56,5.33,41.11,5.78s49.33-2,49.33-2l70.22-6.67,66.89-6.44,71.33-3.33s50.89,2,69.11,4,72.67-5.11,96.67-41.33-88.89-142-88.89-142l-87.56-68.22s-10.89-6-16.89,0-1.33,15.11-1.33,15.11c0,0,50.59,45.11,69.26,65.56s70.81,88.89,135.7,92.15,75.85,4.74,75.85,4.74c0,0,57.19-3.85,110.81-14.81s58.07-16.59,58.07-16.59c0,0,15.11-6.81,49.78-9.19s72-7.7,91.26-.89,56.3,21.63,56.3,21.63c0,0,69.93,13.93,88,48.3s35.85,81.19,35.85,81.19l28.15,114.67,17.19,67.26,13.63,48.89,12.15,89.48"/>
    <path class="cls-3" d="m2336.37,365.33s1.04,19.41-16.15,34.22-63.26,38.07-85.78,55.85-54.96,44.15-82.52,76.15-80.52,80.59-80.52,80.59l-62.67,50.89s-14,12.22-50.89,7.33-89.56-22.67-102.44-29.33-25.11-14.44-38.89-28-66.22-68.67-66.22-68.67l-61.33-55.11s-26.67-22-59.33-27.56-79.56-11.33-79.56-11.33l-33.11-.89-21.33-4.67-32.67-8.44-20.67-4.22-60-8-16.89-2.67-22.22-6.89-22-4.67-32.67-4-36.22-7.56-36.44-6.89-26.89-1.78-29.56-1.44h-68.67l-32.89-1.67s-31.33-2.67-62.44,1.67-104.67,15-104.67,15c0,0-35.56,7.11-67.33,29.33s-76.22,6.89-76.22,6.89c0,0-55.56-14-93.56-16.67s-44-6.44-44-6.44l-13.33-.44-20.44-.44-13.56-1.33-18.44,1.11-14.89,1.33-17.11,1.33-14.89,1.11-17.78-5.33s-9.11-3.78-39.33,1.33-52,16-52,16c0,0-16,5.56-30.89,25.11s-8.44,54.67-8.44,54.67l10.22,60.67s14.44,83.33,13.78,98.44"/>
    <path class="cls-3" d="m370.52,629.7s13.78-11.78,33.11-19.78,89.11-39.33,89.11-39.33l112.22-46.22s17.33-5.78,25.78-14.67,12-20.89,12-20.89c0,0,8.44-34,9.11-62.22"/>
    <path class="cls-3" d="m2173.63,505.26s-2-26.67-18-56.67-58.89-104.67-63.56-129.56"/>
    <path class="cls-3" d="m2058.07,187.26s3.33,17.11,15.78,31.78,31.78,38,31.78,38c0,0,11.11,16.44,0,38.89s-30.89,38.89-30.89,38.89c0,0-15.78,17.11-30.89,55.78s-26.67,76-26.67,76c0,0-11.78,30.44,2.67,66s42.89,81.11,42.89,81.11"/>
    <path class="cls-3" d="m2066.52,621.26s44.67,67.56,4.22,142.44"/>
    <path class="cls-3" d="m215.78,518.43s-24.89-5.98-16-32.06,7.04-54.52,7.04-54.52c0,0-.52-27.56,22.29-51.26s36.44-35.56,36.44-35.56c0,0,4.15-5.63,27.56-12.74s42.67-18.37,42.67-18.37l29.33-15.11,29.04-15.41s80-32,121.48-36.74,69.63-8,69.63-8l64.59-7.41,53.04-4.15h45.93s20.74-2.37,34.96-7.41,46.52-13.93,46.52-13.93l26.37-5.93s16.3-3.56,18.07,11.56,11.85,22.22,11.85,22.22c0,0,26.96,30.52,29.33,40.59"/>
    <path class="cls-3" d="m1402.44,308l-8.89-29.04s-4.15-15.41,4.44-23.11,35.85-23.7,35.85-23.7l45.04-42.07,38.81-45.63,20.44-30.22s8.89-17.19,5.04-36.74-12.74-61.93-12.74-61.93"/>
    <path class="cls-3" d="m1251.93,299.41s-25.19-8.59-30.22-33.78-18.07-53.93-18.07-53.93c0,0-11.26-26.37-13.33-38.81s-2.96-35.56-2.96-35.56c0,0,1.48-25.19,25.19-41.78s68.44-26.96,68.44-26.96l74.07-19.56s13.04,0,20.15-24"/>
    <polygon class="cls-5" points="605.26 379.26 607.78 409.19 639.48 408 637.41 377.93 605.26 379.26"/>
    <polygon class="cls-5" points="651.85 376.15 653.7 406.52 678.15 405.04 676.52 374.52 651.85 376.15"/>
    <polygon class="cls-5" points="761.26 407.56 763.63 437.63 801.85 435.85 799.78 405.63 761.26 407.56"/>
    <polygon class="cls-5" points="511.19 440.81 517.41 476.37 554.3 469.93 547.85 434.04 511.19 440.81"/>
    <polygon class="cls-5" points="399.85 463.81 406.3 496.15 471.96 483.93 465.63 451.48 399.85 463.81"/>
    <polygon class="cls-5" points="363.52 489.59 366.85 503.59 394.74 498.04 392.41 483.93 363.52 489.59"/>
    <polygon class="cls-5" points="240.3 591.7 296.3 696.81 365.19 653.26 353.85 635.48 333.63 647.93 286.74 561.7 240.3 591.7"/>
    <polygon class="cls-5" points="394.74 572.59 402.96 588.81 427.41 579.04 420.07 563.26 394.74 572.59"/>
    <polygon class="cls-5" points="389.19 647.93 398.07 668.81 746.3 522.81 733.41 491.04 459.19 605.48 462.3 614.37 389.19 647.93"/>
    <polygon class="cls-5" points="1994.74 699.93 1997.41 716.81 2040.3 713.04 2036.07 693.93 1994.74 699.93"/>
    <path class="cls-5" d="m2123.41,615.7c1.11,3.78,8.67,38.67,8.67,38.67l50.22-12-8.22-36.89-50.67,10.22Z"/>
    <polygon class="cls-5" points="1733.41 383.81 1748.19 400.15 1775.3 373.15 1758.63 359.15 1733.41 383.81"/>
    <polygon class="cls-5" points="1664.07 363.26 1687.74 389.37 1703.52 374.15 1678.19 350.04 1664.07 363.26"/>
    <polygon class="cls-5" points="1472.3 345.37 1482.85 363.2 1498.85 353.31 1488.3 336.15 1472.3 345.37"/>
    <rect class="cls-5" x="1507.3" y="474.78" width="90.1" height="103.63" transform="translate(545.66 1820.3) rotate(-70.85)"/>
    <polygon class="cls-5" points="1461.85 497.37 1453.52 525.48 1471.85 530.7 1479.96 503.04 1461.85 497.37"/>
    <polygon class="cls-5" points="1332.3 438.22 1327.26 463.63 1344.74 467.04 1350.52 441.93 1332.3 438.22"/>
    <polygon class="cls-5" points="1260 456.89 1256.67 474.3 1274.52 478 1278.3 460.67 1260 456.89"/>
    <polygon class="cls-5" points="1193.56 433.33 1187.04 465.33 1210.07 470.15 1216.89 438.44 1193.56 433.33"/>
    <polygon class="cls-5" points="1094.89 433.19 1093.93 455.56 1114.52 456.37 1115.7 434.37 1094.89 433.19"/>
    <polygon class="cls-5" points="1271.63 345.78 1286.59 378.22 1322.59 361.11 1307.86 328.89 1271.63 345.78"/>
    <polygon class="cls-5" points="1252.89 272.52 1262.44 293.48 1304.89 274.59 1295.7 252.89 1252.89 272.52"/>
    <polygon class="cls-5" points="1553.48 130.3 1583.48 168.52 1604.89 152.22 1574.59 113.33 1553.48 130.3"/>
    <polygon class="cls-5" points="1590.89 16.44 1576.3 42.89 1618.89 67.19 1634.96 39.7 1590.89 16.44"/>
    <path class="cls-1" d="m1977.41,221.93s20,21.33-4,31.11,0,26.67,0,26.67c0,0,13.33,22.67-20.89,24.89s-5.78,15.56,3.56,28.89-31.56-11.11-40,13.33,45.78,46.67,2.67,53.33-46.67,21.78-37.33,36.44,13.78,31.11-18.22,35.11-34.67,15.56-25.78,31.56-11.11,35.56-29.78,23.33-37.78,7.33-28.44,22.89"/>
    <path class="cls-2" d="m13.85,836.15l747.41-314.67s122.81-47.11,172.15-45.11,113.33,7.33,113.33,7.33l103.11,13.67,100.44,13.89,88.59,17.78,63.41,16.44,209.33,73.33s83.56,47.11,128.89,90.67,148.44,144,148.44,144"/>
    <path class="cls-2" d="m2092.07,801.04s-46.67-45.56-92.22-58.22-130.67-37.44-130.67-37.44l-118.67-44.33-101.33-38s-250.3-96.37-285.56-102.59-124.15-32.44-203.56-42.44-130.37-7.85-130.37-7.85l-202.07-13.78h-65.19l-93.04,8.67-64.15,10.07-91.7,13.04-41.59,5.61-49.07,8.02-36.74,3.85-29.04,7.11-95.7,21.63"/>
  </g>
</svg>