<?xml version="1.0" encoding="UTF-8"?>
<svg id="Layer_2" data-name="Layer 2" xmlns="http://www.w3.org/2000/svg" viewBox="0 0 2390.86 840.85">
  <defs>
    <style>
      .cls-1 {
        stroke: #5fe1ff;
        stroke-linecap: round;
        stroke-width: 18px;
      }

      .cls-1, .cls-2, .cls-3 {
        fill: none;
        stroke-linejoin: round;
      }

      .cls-2 {
        stroke: #a4a6a4;
        stroke-width: 5px;
      }

      .cls-3 {
        stroke: #5f6866;
        stroke-width: 11px;
      }

      .cls-4 {
        fill: #100055;
      }
    </style>
  </defs>
  <path class="cls-3" d="m207.08,716.39s-10.56-30.89,11.44-76c0,0,12-14,4.89-54.22s-8.31-47.78-8.31-47.78c0,0-9.92-22-8.14-34.44s30.89-36,30.89-36c0,0,146.67-124.44,172.44-138.22s49.78-30.89,82.22-40.67,146.67-32.44,146.67-32.44c0,0,77.33-12.22,133.78-6.44s116.67,12.22,116.67,12.22c0,0,38,.44,59.11-1.11s40.89-3.11,54.89-2.44,89.56,4.44,127.56,10.89,142.22,24.44,142.22,24.44c0,0,21.56,5.33,41.11,5.78s49.33-2,49.33-2l70.22-6.67,66.89-6.44,71.33-3.33s50.89,2,69.11,4,72.67-5.11,96.67-41.33-88.89-142-88.89-142l-87.56-68.22s-10.89-6-16.89,0-1.33,15.11-1.33,15.11c0,0,50.59,45.11,69.26,65.56s70.81,88.89,135.7,92.15,75.85,4.74,75.85,4.74c0,0,57.19-3.85,110.81-14.81s58.07-16.59,58.07-16.59c0,0,15.11-6.81,49.78-9.19s72-7.7,91.26-.89,56.3,21.63,56.3,21.63c0,0,69.93,13.93,88,48.3s35.85,81.19,35.85,81.19l28.15,114.67,17.19,67.26,13.63,48.89,12.15,89.48"/>
  <path class="cls-3" d="m2323.49,350.91s1.04,19.41-16.15,34.22-63.26,38.07-85.78,55.85-54.96,44.15-82.52,76.15-80.52,80.59-80.52,80.59l-62.67,50.89s-14,12.22-50.89,7.33-89.56-22.67-102.44-29.33-25.11-14.44-38.89-28-66.22-68.67-66.22-68.67l-61.33-55.11s-26.67-22-59.33-27.56-79.56-11.33-79.56-11.33l-33.11-.89-21.33-4.67-32.67-8.44-20.67-4.22-60-8-16.89-2.67-22.22-6.89-22-4.67-32.67-4-36.22-7.56-36.44-6.89-26.89-1.78-29.56-1.44h-68.67l-32.89-1.67s-31.33-2.67-62.44,1.67-104.67,15-104.67,15c0,0-35.56,7.11-67.33,29.33s-76.22,6.89-76.22,6.89c0,0-55.56-14-93.56-16.67s-44-6.44-44-6.44l-13.33-.44-20.44-.44-13.56-1.33-18.44,1.11-14.89,1.33-17.11,1.33-14.89,1.11-17.78-5.33s-9.11-3.78-39.33,1.33-52,16-52,16c0,0-16,5.56-30.89,25.11s-8.44,54.67-8.44,54.67l10.22,60.67s14.44,83.33,13.78,98.44"/>
  <path class="cls-3" d="m357.64,615.28s13.78-11.78,33.11-19.78,89.11-39.33,89.11-39.33l112.22-46.22s17.33-5.78,25.78-14.67,12-20.89,12-20.89c0,0,8.44-34,9.11-62.22"/>
  <path class="cls-3" d="m2160.75,490.83s-2-26.67-18-56.67-58.89-104.67-63.56-129.56"/>
  <path class="cls-3" d="m2045.19,172.83s3.33,17.11,15.78,31.78,31.78,38,31.78,38c0,0,11.11,16.44,0,38.89s-30.89,38.89-30.89,38.89c0,0-15.78,17.11-30.89,55.78s-26.67,76-26.67,76c0,0-11.78,30.44,2.67,66s42.89,81.11,42.89,81.11"/>
  <path class="cls-3" d="m2053.64,606.83s44.67,67.56,4.22,142.44"/>
  <path class="cls-3" d="m202.9,504s-24.89-5.98-16-32.06,7.04-54.52,7.04-54.52c0,0-.52-27.56,22.29-51.26s36.44-35.56,36.44-35.56c0,0,4.15-5.63,27.56-12.74s42.67-18.37,42.67-18.37l29.33-15.11,29.04-15.41s80-32,121.48-36.74,69.63-8,69.63-8l64.59-7.41,53.04-4.15h45.93s20.74-2.37,34.96-7.41,46.52-13.93,46.52-13.93l26.37-5.93s16.3-3.56,18.07,11.56,11.85,22.22,11.85,22.22c0,0,26.96,30.52,29.33,40.59"/>
  <path class="cls-3" d="m1389.56,293.57l-8.89-29.04s-4.15-15.41,4.44-23.11,35.85-23.7,35.85-23.7l45.04-42.07,38.81-45.63,20.44-30.22s8.89-17.19,5.04-36.74-12.74-61.93-12.74-61.93"/>
  <path class="cls-3" d="m1239.04,284.98s-25.19-8.59-30.22-33.78-18.07-53.93-18.07-53.93c0,0-11.26-26.37-13.33-38.81s-2.96-35.56-2.96-35.56c0,0,1.48-25.19,25.19-41.78s68.44-26.96,68.44-26.96l74.07-19.56s13.04,0,20.15-24"/>
  <polygon class="cls-4" points="592.38 364.83 594.9 394.76 626.6 393.57 624.53 363.5 592.38 364.83"/>
  <polygon class="cls-4" points="638.97 361.72 640.82 392.09 665.27 390.61 663.64 360.09 638.97 361.72"/>
  <polygon class="cls-4" points="748.38 393.13 750.75 423.2 788.97 421.43 786.9 391.2 748.38 393.13"/>
  <polygon class="cls-4" points="498.3 426.39 504.53 461.94 541.41 455.5 534.97 419.61 498.3 426.39"/>
  <polygon class="cls-4" points="386.97 449.39 393.41 481.72 459.08 469.5 452.75 437.06 386.97 449.39"/>
  <polygon class="cls-4" points="350.64 475.17 353.97 489.17 381.86 483.61 379.53 469.5 350.64 475.17"/>
  <polygon class="cls-4" points="227.41 577.28 283.41 682.39 352.3 638.83 340.97 621.06 320.75 633.5 273.86 547.28 227.41 577.28"/>
  <polygon class="cls-4" points="381.86 558.17 390.08 574.39 414.53 564.61 407.19 548.83 381.86 558.17"/>
  <polygon class="cls-4" points="376.3 633.5 385.19 654.39 733.41 508.39 720.53 476.61 446.3 591.06 449.41 599.94 376.3 633.5"/>
  <polygon class="cls-4" points="1981.86 685.5 1984.53 702.39 2027.41 698.61 2023.19 679.5 1981.86 685.5"/>
  <path class="cls-4" d="m2110.53,601.28c1.11,3.78,8.67,38.67,8.67,38.67l50.22-12-8.22-36.89-50.67,10.22Z"/>
  <polygon class="cls-4" points="1720.53 369.39 1735.3 385.72 1762.41 358.72 1745.75 344.72 1720.53 369.39"/>
  <polygon class="cls-4" points="1651.19 348.83 1674.86 374.94 1690.64 359.72 1665.3 335.61 1651.19 348.83"/>
  <polygon class="cls-4" points="1459.41 330.94 1469.97 348.78 1485.97 338.89 1475.41 321.72 1459.41 330.94"/>
  <rect class="cls-4" x="1494.42" y="460.35" width="90.1" height="103.63" transform="translate(550.63 1798.43) rotate(-70.85)"/>
  <polygon class="cls-4" points="1448.97 482.94 1440.64 511.06 1458.97 516.28 1467.08 488.61 1448.97 482.94"/>
  <polygon class="cls-4" points="1319.41 423.8 1314.38 449.2 1331.86 452.61 1337.64 427.5 1319.41 423.8"/>
  <polygon class="cls-4" points="1247.12 442.46 1243.78 459.87 1261.64 463.57 1265.41 446.24 1247.12 442.46"/>
  <polygon class="cls-4" points="1180.67 418.91 1174.16 450.91 1197.19 455.72 1204.01 424.02 1180.67 418.91"/>
  <polygon class="cls-4" points="1082.01 418.76 1081.04 441.13 1101.64 441.94 1102.82 419.94 1082.01 418.76"/>
  <polygon class="cls-4" points="1258.75 331.35 1273.71 363.8 1309.71 346.68 1294.98 314.46 1258.75 331.35"/>
  <polygon class="cls-4" points="1240.01 258.09 1249.56 279.06 1292.01 260.17 1282.82 238.46 1240.01 258.09"/>
  <polygon class="cls-4" points="1540.6 115.87 1570.6 154.09 1592.01 137.8 1561.71 98.91 1540.6 115.87"/>
  <polygon class="cls-4" points="1578.01 2.02 1563.41 28.46 1606.01 52.76 1622.08 25.28 1578.01 2.02"/>
  <path class="cls-1" d="m1964.53,207.5s20,21.33-4,31.11,0,26.67,0,26.67c0,0,13.33,22.67-20.89,24.89s-5.78,15.56,3.56,28.89-31.56-11.11-40,13.33,45.78,46.67,2.67,53.33-46.67,21.78-37.33,36.44,13.78,31.11-18.22,35.11-34.67,15.56-25.78,31.56-11.11,35.56-29.78,23.33-37.78,7.33-28.44,22.89"/>
  <path class="cls-2" d="m.97,821.72l747.41-314.67s122.81-47.11,172.15-45.11,113.33,7.33,113.33,7.33l103.11,13.67,100.44,13.89,88.59,17.78,63.41,16.44,209.33,73.33s83.56,47.11,128.89,90.67,148.44,144,148.44,144"/>
  <path class="cls-2" d="m2079.19,786.61s-46.67-45.56-92.22-58.22-130.67-37.44-130.67-37.44l-118.67-44.33-101.33-38s-250.3-96.37-285.56-102.59-124.15-32.44-203.56-42.44-130.37-7.85-130.37-7.85l-202.07-13.78h-65.19l-93.04,8.67-64.15,10.07-91.7,13.04-41.59,5.61-49.07,8.02-36.74,3.85-29.04,7.11-95.7,21.63"/>
</svg>